<svg xmlns="http://www.w3.org/2000/svg" xmlns:xlink="http://www.w3.org/1999/xlink" stroke-miterlimit="10" stroke-linecap="square" stroke="none" fill="none" viewBox="8.638920134983127 177.12 947.0416197975253 206.28" version="1.1" style="max-height: 500px" width="947.0416197975253" height="206.28"><clipPath id="g3350aa8af26_1_125.0"><path clip-rule="nonzero" d="m0 0l960.0 0l0 540.0l-960.0 0l0 -540.0z"/></clipPath><g clip-path="url(#g3350aa8af26_1_125.0)"><path fill-rule="evenodd" d="m0 0l960.0 0l0 540.0l-960.0 0z" fill="#ffffff"/><path fill-rule="evenodd" d="m-1.496063 -4.6614175l962.99207 0l0 540.0l-962.99207 0z" fill="#c4d5bf"/><path fill-rule="evenodd" d="m-1.496063 -4.6614175l962.99207 0l0 540.0l-962.99207 0z" stroke-linecap="butt" stroke-linejoin="round" stroke-width="1.0" stroke="#c4d5bf"/><path fill-rule="evenodd" d="m0.015748031 118.03412l960.0 0l0 279.59055l-960.0 0z" fill-opacity="0.0" fill="#000000"/><path fill-rule="nonzero" d="m73.98917 205.73877q17.71875 0 30.40625 3.40625q12.6875 3.390625 20.53125 13.34375q7.859375 9.953125 7.859375 27.96875q0 7.921875 -2.359375 16.140625q-2.359375 8.203125 -5.96875 14.46875q-3.59375 6.265625 -6.765625 8.390625q-3.640625 2.59375 -14.40625 3.828125q-10.765625 1.234375 -24.8125 1.234375q-4.96875 0 -11.828125 -0.28125l0 40.390625l-45.046875 0l0 -128.15625q25.671873 -0.734375 52.390625 -0.734375zm13.390625 56.09375q1.40625 -1.84375 1.40625 -9.03125q0 -9.484375 -3.609375 -13.0q-3.59375 -3.515625 -13.53125 -3.515625q-3.609375 0 -5.0 0.203125l-0.9375 27.375q-0.078125 -0.953125 5.9375 -0.953125q14.84375 0 15.734375 -1.078125zm79.4494 -37.5q-8.5625 0 -14.796875 -5.84375q-6.234375 -5.859375 -6.234375 -14.125q0 -8.25 6.234375 -14.09375q6.234375 -5.859375 14.796875 -5.859375q8.59375 0 14.703125 5.859375q6.109375 5.859375 6.109375 14.09375q0 8.25 -6.109375 14.109375q-6.109375 5.859375 -14.703125 5.859375zm-21.671875 5.515625l43.125 0l0 104.78125l-43.125 0l0 -104.78125zm162.08011 7.390625q2.5625 3.140625 3.578125 13.109375q1.03125 9.953125 1.03125 29.328125l0 54.953125l-43.140625 0l0 -54.53125l0 -8.734375q0 -5.875 -0.453125 -6.625q-0.578125 -0.71875 -5.171875 -0.71875q-2.75 0 -4.1875 0.203125q-5.578125 0.203125 -9.34375 1.703125l0 68.703125l-43.125 0l0 -104.78125l35.59375 0l3.09375 12.53125q12.140625 -14.671875 35.03125 -14.671875q8.203125 0 15.625 2.359375q7.421875 2.359375 11.46875 7.171875zm75.983215 -9.109375q10.25 0 21.25 1.40625q11.015625 1.40625 28.375 4.21875l0 87.734375q0 32.0625 -21.46875 49.921875q-3.25 2.703125 -12.796875 4.296875q-9.53125 1.59375 -21.109375 1.59375q-25.25 0 -42.0625 -7.53125q-0.328125 -7.015625 0.65625 -14.9375q1.0 -7.90625 2.84375 -15.546875q18.125 2.765625 32.59375 2.765625q7.21875 0 11.703125 -0.640625q4.484375 -0.640625 5.046875 -1.28125q0.9375 -0.921875 1.6875 -10.78125q0.203125 -2.859375 0.203125 -8.5l1.703125 0q-1.515625 5.265625 -10.609375 9.0q-9.078125 3.71875 -16.359375 3.71875q-19.546875 0 -29.578125 -12.828125q-10.015625 -12.828125 -10.015625 -36.578125q0 -15.453125 4.40625 -29.34375q4.421875 -13.90625 12.59375 -19.6875q5.34375 -3.640625 16.40625 -5.3125q11.0625 -1.6875 24.53125 -1.6875zm-4.46875 72.109375q7.25 0 10.96875 -1.484375l0.4375 -39.921875q0.078125 0.453125 -4.46875 0.046875q-1.984375 -0.1875 -6.09375 -0.1875q-5.515625 0 -6.328125 0.609375q-1.28125 0.9375 -2.53125 7.921875q-1.25 6.984375 -1.25 15.21875q0 10.859375 1.96875 14.328125q1.984375 3.46875 7.296875 3.46875zm175.5362 29.109375q-10.546875 4.546875 -21.34375 6.078125q-10.78125 1.546875 -19.96875 1.546875q-30.31253 0 -47.75003 -16.078125q-17.4375 -16.09375 -17.4375 -48.90625q0 -33.4375 18.28125 -50.265625q18.296875 -16.84375 50.953156 -16.84375q15.34375 0 34.484375 4.796875q0 7.03125 -0.890625 15.65625q-0.875 8.609375 -2.390625 14.796875l-16.046875 0q-14.609375 0 -22.421906 0.5q-7.8125 0.484375 -8.625 1.203125q-2.375 2.203125 -3.953125 10.578125q-1.5625 8.375 -1.5625 16.390625q0 13.765625 3.203125 20.671875q3.21875 6.890625 7.6875 8.953125q4.65625 2.234375 16.28128 2.234375q9.640625 0 28.59375 -2.046875l2.90625 30.734375zm121.343506 -99.5l-26.96875 86.453125q-7.5625 24.015625 -13.796875 35.25q-6.234375 11.234375 -12.84375 15.96875q-4.046875 2.78125 -11.90625 4.140625q-7.859375 1.375 -16.671875 1.375q-13.296875 0 -23.71875 -3.203125q-0.296875 -7.671875 0.34375 -15.234375q0.65625 -7.5625 2.359375 -15.65625q11.703125 0.546875 20.15625 0.546875q6.296875 0 7.515625 -0.078125q2.25 -4.375 3.21875 -6.765625l-12.296875 -0.71875l-35.09375 -102.078125l45.890625 0l17.765625 71.53125l-2.46875 3.859375l-0.640625 -0.125l13.296875 -75.265625l45.859375 0zm96.88989 100.75q-20.40625 6.796875 -42.296875 6.796875q-25.28125 0 -38.09375 -13.03125q-12.796875 -13.03125 -12.796875 -40.0q0 -13.03125 3.578125 -25.890625q3.578125 -12.859375 7.9375 -17.71875q5.15625 -5.640625 18.953125 -9.234375q13.8125 -3.59375 28.3125 -3.59375q15.015625 0 33.21875 3.125q-0.671875 8.453125 -1.65625 15.6875q-0.96875 7.234375 -2.59375 15.765625q-16.0625 -1.046875 -27.6875 -1.046875q-10.875 0 -13.515625 1.0625q-0.09375 -0.15625 -1.21875 6.9375q-1.125 7.09375 -1.125 13.84375q0 8.5625 2.15625 12.625q2.15625 4.046875 7.03125 5.671875q4.875 1.625 14.140625 1.625q4.171875 0 21.65625 -1.015625l4.0 28.390625zm12.452026 -130.5l43.125 -1.75l0 136.28125l-43.125 0l0 -134.53125zm124.11133 102.28125q5.203125 0 19.71875 -1.078125q1.90625 0 10.0 -0.671875l4.015625 27.515625q-19.34375 9.046875 -46.328125 9.046875q-25.859375 0 -39.984375 -13.3125q-14.109375 -13.328125 -14.109375 -39.71875q0 -13.25 3.46875 -25.796875q3.46875 -12.5625 8.296875 -17.859375q5.140625 -5.375 17.953125 -8.96875q12.828125 -3.609375 25.234375 -3.609375q20.265625 0 30.796875 7.5q10.546875 7.484375 13.71875 20.328125q3.1875 12.84375 3.1875 36.65625q-17.75 1.046875 -31.703125 1.046875l-26.96875 0q0 2.28125 2.09375 4.78125q2.109375 2.484375 6.703125 3.3125q4.609375 0.828125 13.90625 0.828125zm-22.34375 -42.796875q-0.328125 -0.53125 -0.5625 3.625q-0.21875 4.15625 -0.3125 6.734375l7.640625 0q9.953125 0 11.1875 -0.0625q0 -6.046875 -2.109375 -9.15625q-2.09375 -3.109375 -7.359375 -3.109375q-4.90625 0 -8.484375 1.96875z" fill="#073b31"/></g></svg>